<svg t="1600850777241" class="icon" viewBox="0 0 1024 1024" version="1.1" xmlns="http://www.w3.org/2000/svg" p-id="9895" width="200" height="200"><path d="M512 1024A512 512 0 1 1 1024 512 512.650159 512.650159 0 0 1 512 1024z m0-1007.746032A495.746032 495.746032 0 1 0 1007.746032 512 496.233651 496.233651 0 0 0 512 16.253968z" p-id="9896" fill="#8f7043"></path><path d="M457.711746 678.278095a39.334603 39.334603 0 0 1-0.812698 8.939683 19.017143 19.017143 0 0 1-2.275556 5.851428 8.939683 8.939683 0 0 1-3.250794 3.250794 7.801905 7.801905 0 0 1-3.738412 0.975238H259.900952a6.989206 6.989206 0 0 1-3.575873-0.975238 10.40254 10.40254 0 0 1-3.250793-3.250794 16.253968 16.253968 0 0 1-2.438096-5.851428 40.147302 40.147302 0 0 1-0.812698-8.939683 38.684444 38.684444 0 0 1 0.812698-8.614603 25.35619 25.35619 0 0 1 2.113016-6.013968 9.914921 9.914921 0 0 1 3.088254-3.575873 6.826667 6.826667 0 0 1 4.063492-1.300318h74.930794V385.544127l-69.404444 41.447619a31.045079 31.045079 0 0 1-8.452064 3.413333 5.688889 5.688889 0 0 1-5.20127-1.300317 10.24 10.24 0 0 1-2.600635-6.013968 65.015873 65.015873 0 0 1 0-10.56508 68.104127 68.104127 0 0 1 0-8.126984 25.35619 25.35619 0 0 1 1.300318-5.526349 11.865397 11.865397 0 0 1 1.462857-3.900952 21.617778 21.617778 0 0 1 4.063492-3.413334l82.732698-52.987936a9.752381 9.752381 0 0 1 2.763175-1.462857l4.226032-1.137778a35.108571 35.108571 0 0 1 5.851428 0h8.289524a93.297778 93.297778 0 0 1 11.052699 0 30.232381 30.232381 0 0 1 6.989206 1.462857 6.176508 6.176508 0 0 1 3.413333 2.438095 6.664127 6.664127 0 0 1 0.812699 3.250794V658.285714h65.015873a7.639365 7.639365 0 0 1 4.226031 1.300318 9.427302 9.427302 0 0 1 3.250794 3.575873 21.292698 21.292698 0 0 1 1.950476 6.013968 48.761905 48.761905 0 0 1 1.137778 9.102222zM753.533968 604.972698a98.661587 98.661587 0 0 1-8.289524 41.447619 82.732698 82.732698 0 0 1-24.055873 30.72 107.43873 107.43873 0 0 1-38.684444 18.854604 198.460952 198.460952 0 0 1-52.825397 6.339047 193.747302 193.747302 0 0 1-49.737143-5.851428 107.926349 107.926349 0 0 1-37.221587-17.229207 75.906032 75.906032 0 0 1-23.405714-28.119365 86.471111 86.471111 0 0 1-8.126984-38.034285 84.358095 84.358095 0 0 1 5.526349-31.04508 89.071746 89.071746 0 0 1 16.253968-26.168889 134.582857 134.582857 0 0 1 25.68127-22.430476 284.769524 284.769524 0 0 1 34.620952-19.667301 207.725714 207.725714 0 0 1-29.744762-18.041905 116.053333 116.053333 0 0 1-21.617777-20.80508 84.683175 84.683175 0 0 1-13.653334-24.218412 81.269841 81.269841 0 0 1-4.551111-27.794286 92.16 92.16 0 0 1 6.826667-35.433651 77.856508 77.856508 0 0 1 20.48-28.769524 99.149206 99.149206 0 0 1 34.946032-19.342222 156.850794 156.850794 0 0 1 49.737142-6.176508 151.486984 151.486984 0 0 1 47.136508 6.501588 93.622857 93.622857 0 0 1 32.507937 17.716825 68.591746 68.591746 0 0 1 19.017143 26.493968 87.608889 87.608889 0 0 1 6.176508 32.507937 81.269841 81.269841 0 0 1-4.551111 27.144127 89.071746 89.071746 0 0 1-12.678096 24.380952 121.092063 121.092063 0 0 1-21.780317 21.780317 200.899048 200.899048 0 0 1-30.232381 19.017143 317.27746 317.27746 0 0 1 35.75873 19.504762 131.819683 131.819683 0 0 1 25.84381 22.105397 88.746667 88.746667 0 0 1 16.253968 25.031111 75.906032 75.906032 0 0 1 4.388571 29.582222z m-48.761905 5.038731a55.426032 55.426032 0 0 0-4.71365-23.243175 61.60254 61.60254 0 0 0-14.303492-19.504762 135.233016 135.233016 0 0 0-23.893334-17.554286q-14.303492-8.452063-32.507936-17.554285a296.147302 296.147302 0 0 0-30.72 17.229206 115.078095 115.078095 0 0 0-21.617778 17.716825 67.453968 67.453968 0 0 0-12.840635 19.342223 56.56381 56.56381 0 0 0-4.551111 23.080635 50.224762 50.224762 0 0 0 18.529524 41.610158 87.12127 87.12127 0 0 0 55.100952 14.791111 83.382857 83.382857 0 0 0 53.800635-14.95365 48.761905 48.761905 0 0 0 18.041905-41.447619z m-11.702857-189.52127a53.313016 53.313016 0 0 0-4.063492-21.130159 43.398095 43.398095 0 0 0-11.865397-16.253968 52.825397 52.825397 0 0 0-18.854603-9.914921 91.184762 91.184762 0 0 0-26.168889-3.413333 66.80381 66.80381 0 0 0-45.348571 13.653333 47.136508 47.136508 0 0 0-15.44127 37.221587 53.638095 53.638095 0 0 0 3.738413 20.154921 56.40127 56.40127 0 0 0 11.702857 17.554286 113.777778 113.777778 0 0 0 19.992381 16.253968 326.542222 326.542222 0 0 0 28.769524 16.253968 140.434286 140.434286 0 0 0 43.073016-32.507936 57.864127 57.864127 0 0 0 14.95365-37.871746z" p-id="9897" fill="#8f7043"></path></svg>